<svg xmlns="http://www.w3.org/2000/svg" height="800" width="1200" viewBox="-8.390775 -2.13621 72.72005 12.81726"><path d="M3.41692 3.35418v1.48428c0 1.03699-.421 1.64264-1.42255 1.64264h-.7283l-.21152 1.99264h1.04538c1.862 0 3.3285-1.35185 3.3285-3.48574V3.35418zm49.5005.01h-.83325c-.0183 0-.0261.0165-.0346.0262l-.69886 2.08097s-.009.0269-.009.0351c0 .009.009.0172.0261.0172h.5133c.0187 0 .0268-.0172.0356-.0351l.1584-.5967h.8502l.1584.5967c.008.0179.019.0351.0363.0351h.48295c.0166 0 .0261-.008.0261-.0172 0-.008-.01-.0351-.01-.0351l-.6664-2.08097c-.009-.01-.0279-.0262-.036-.0262m2.5206 1.32581v.51813s-.14922.009-.2815.009c-.41206 0-.63184-.11507-.63184-.75573 0-.66653.23743-.77265.69322-.77265.19402 0 .39651.0347.5288.0613.007.008.0258.008.043.008 0 0 .0434.009.0699.009.0265 0 .0346-.0168.0448-.0602l.0254-.14125c.009-.0255.009-.0606.009-.0696 0-.0266-.0258-.0351-.0444-.0531-.0699-.0262-.37712-.12333-.80715-.12333-.77258 0-1.0982.29972-1.0982 1.12448 0 .80767.26353 1.11566 1.15076 1.11566.21943 0 .48296-.0358.61454-.0613h-.007c.1577-.0434.19191-.10542.19191-.25494V4.3469c0-.0262-.009-.0342-.0342-.0342h-.81738c-.0272 0-.0346.008-.0346.0342v.26392c0 .0353.0257.0442.0346.0442zm-3.02083-.99303h.16686l.2466.85164h-.659zM14.51695 5.89369c0-1.12447.043-1.58117.8151-1.58117.77377 0 .81787.4567.81787 1.58117 0 1.11484-.0441 1.56201-.81788 1.56201-.77209 0-.8151-.44717-.8151-1.56201m-1.69565 0c0 1.49173.29834 2.64308 2.51075 2.64308 2.21343 0 2.51178-1.15135 2.51178-2.64308 0-1.50219-.29835-2.6618-2.51178-2.6618-2.21241 0-2.51075 1.15961-2.51075 2.6618m31.91234-1.66136v-.78066c0-.15021-.0716-.2019-.20285-.2019h-.1672c-.60573 0-1.2552.0696-1.72016.17502-.56302.12333-.86077.22877-.86077.56225v4.30375c0 .0696.0526.12334.12348.12334h1.41252c.0702 0 .12347-.0538.12347-.12334V4.51413c.0882-.0176.5535-.0789 1.11548-.0789.17604 0 .17604-.0967.17604-.20285M33.41398 6.8501c0 .51814-.31764.67593-.72002.67593-.31626 0-.69454-.0971-.69454-.0971V3.47756c0-.0703-.0523-.12295-.12263-.12295h-1.41362c-.06957 0-.1229.0526-.1229.12295v3.37259c0 .51814-.21082.67593-.59712.67593-.34339 0-.8257-.0875-.8257-.0875V3.47757c0-.0703-.05307-.12295-.12239-.12295h-4.04025v-1.5627c0-.11437-.06078-.16672-.15794-.16672-.0168 0-.06131.009-.1047.0168l-1.21296.21128c-.1137.0262-.17473.10499-.17473.24596v1.25539h-2.26621v-.55301c0-.18355.02688-.30688.12308-.39508.10636-.0879.23728-.11341.46606-.11341.14855 0 .36833.0255.48231.0431.01764 0 .03581.009.06198.009.0441.008.09687.0179.12196.0179.06244 0 .08036-.0445.08819-.12333l.10654-.7028s.0083-.0531.0083-.0786c0-.07-.0266-.11437-.09687-.14054-.1232-.0356-.57905-.16743-1.32634-.16743-1.1672 0-1.70328.52708-1.70328 1.57233v.63182h-.7469c-.06985 0-.12249.0526-.12249.12295v.90508c0 .0703.05263.12334.12249.12334h.7469v3.78491c0 .0696.05239.12334.1228.12334h1.4231c.06957 0 .1222-.0538.1222-.12334V4.50595h2.26622v2.35313c0 1.20303.60632 1.63366 1.80082 1.63366.67522 0 1.1242-.14124 1.22823-.17638.09606-.0351.1323-.0792.1323-.15779 0-.0345-.0084-.0786-.0084-.0786l-.13258-.69453c-.01697-.0792-.05277-.10473-.10516-.10473-.0078 0-.03581 0-.06985.008-.0085 0-.02646.009-.04382.009-.11494.0172-.31722.0441-.55397.0441-.50948 0-.59725-.23771-.59725-.58911V4.51393h2.50278v3.29366c0 .32384.29933.42926.84363.55259.42115.0882 1.03562.18466 1.50206.18466.57919 0 1.17588-.10542 1.61618-.43959.5946.34313 1.25497.43959 1.87688.43959 1.17782 0 1.97721-.28112 1.97721-1.45796V3.47726c0-.0703-.0528-.12295-.1228-.12295h-1.4141c-.0703 0-.12267.0526-.12267.12295zm13.32167-1.24712v-.0875c0-.13987.008-.46577.0434-.66696.0695-.33433.25435-.55344.76411-.55344.47414 0 .69356.18397.78141.49142.0526.18464.0526.483.0526.67593v.14056zm-7.80733 1.85277c-.0522.0179-.33373.0882-.69356.0882-.33373 0-.82515-.0703-.82515-.68489 0-.55328.28117-.62356.64876-.68488l.86996-.14056zM2.01125 5.23435V3.54817c0-1.0535.44028-1.55413 1.4231-1.55413h.71079L4.35624 0h-1.1155C1.29121 0 0 1.44046 0 3.39866v1.83569zm7.71907 1.2113c.45656.0889.6587.14125.6587.54432 0 .3955-.35112.49265-.67659.49265-.50024 0-1.0972-.14056-1.3257-.20188h.0083c-.0083 0-.01792-.008-.02593-.008-.03542-.01-.07027-.0179-.09603-.0179-.0441 0-.0882.0345-.09825.12264l-.10365.62356c-.0099.0441-.0183.10474-.0183.13092 0 .062.02588.0882.09616.12264.19389.0806.98393.27354 1.8011.27354 1.20263 0 2.11558-.42236 2.11558-1.67776 0-1.20302-.71137-1.43109-1.39527-1.55443l-.14196-.0262c-.3937-.0703-.7371-.14056-.7371-.54502 0-.40389.413-.45558.70306-.45558.37761 0 .78094.0696.98393.1137.11342.0269.14016.0269.17502.0269.04452 0 .10502-.0448.12266-.0889.03542-.21086.08844-.42969.12333-.64079 0 0 .0083-.0441.0083-.0703 0-.10474-.04315-.14884-.18355-.18468-.27231-.0703-.81661-.1929-1.4931-.1929-.84212 0-2.11614.14055-2.11614 1.6069 0 1.28228.8599 1.46694 1.5186 1.58958zm30.84971-1.6943c0-.54486-.16793-.96615-.63324-1.22936-.34184-.1929-.82444-.29005-1.50248-.29005-1.05234 0-1.9932.28109-2.17629.35966-.0614.0276-.12347.062-.12347.13186v.0349c0 .009.009.0179.009.0269l.16651.72898c.009.052.0438.0703.0882.0703.0176 0 .0427 0 .0705-.009.21062-.0614.98285-.26296 1.58928-.26296.29844 0 .52633.0259.64875.0872.1852.0882.21132.24613.21132.50038v.21979l-1.65982.26389c-.63148.0958-1.44887.28939-1.44887 1.49173 0 1.49448 1.19345 1.66122 2.38831 1.66122.57114 0 1.028-.0358 1.41393-.12264.63253-.15021.95815-.27285.95815-1.0108zm4.46017 1.16789c0 1.96784.88723 2.61758 2.77495 2.61758.84384 0 1.4926-.21153 1.80057-.31695.096-.0345.1323-.10542.1323-.16674 0-.0179 0-.0344-.009-.0703l-.14077-.57947v.008c-.0353-.12264-.0885-.14883-.1584-.14883-.0356 0-.0797.01-.11465.0179h.01c-.24694.0703-.70273.20188-1.22096.20188-.43039 0-.7299-.0351-.94968-.1502-.25329-.13092-.41204-.39412-.41204-.78962h2.98697c.20108 0 .23671-.14056.23671-.27285v-.46509c0-.87782-.14993-1.5536-.5094-1.97599-.37854-.36819-1.01037-.59693-1.92336-.59693-1.8623 0-2.50295.72856-2.50295 2.6873" fill="#089acd"/></svg>