<svg xmlns="http://www.w3.org/2000/svg" shape-rendering="geometricPrecision" text-rendering="geometricPrecision" image-rendering="optimizeQuality" fill-rule="evenodd" clip-rule="evenodd" viewBox="0 0 451 512.426"><path fill="#E21B1B" d="M56.642 62.995C247.606-69.013 263.461 191.827 451 28.702v266.205C272.131 455.746 231.954 196.302 56.642 328.37V62.995z"/><path fill="#4F1A08" d="M57.161 62.944v386.537c8.162 6.463 13.394 16.446 13.394 27.664 0 19.486-15.794 35.281-35.28 35.281C15.79 512.426 0 496.631 0 477.145c0-11.888 5.88-22.404 14.89-28.793V64.073C5.88 57.684 0 47.168 0 35.28 0 15.795 15.79 0 35.275 0c19.486 0 35.28 15.795 35.28 35.28 0 11.218-5.232 21.202-13.394 27.664z"/></svg>